<svg xmlns="http://www.w3.org/2000/svg" xmlns:xlink="http://www.w3.org/1999/xlink" version="1.1" width="256" height="256" viewBox="0 0 256 256" xml:space="preserve">
<desc>Created with Fabric.js 1.7.22</desc>
<defs>
</defs>
<g transform="translate(128 128) scale(0.72 0.72)" style="">
	<g style="stroke: none; stroke-width: 0; stroke-dasharray: none; stroke-linecap: butt; stroke-linejoin: miter; stroke-miterlimit: 10; fill: none; fill-rule: nonzero; opacity: 1;" transform="translate(-175.05 -175.05000000000004) scale(3.89 3.89)" >
	<path d="M 89.894 24.914 c 0.012 -0.036 0.024 -0.07 0.033 -0.107 C 89.97 24.644 90 24.476 90 24.3 c 0 -0.017 -0.005 -0.033 -0.005 -0.05 c -0.001 -0.031 -0.007 -0.06 -0.009 -0.091 c -0.013 -0.178 -0.047 -0.349 -0.104 -0.511 c -0.009 -0.026 -0.014 -0.052 -0.024 -0.078 c -0.071 -0.181 -0.171 -0.346 -0.289 -0.497 c -0.012 -0.016 -0.016 -0.035 -0.029 -0.05 L 73.193 3.3 c -0.018 -0.022 -0.042 -0.038 -0.061 -0.059 c -0.053 -0.059 -0.111 -0.113 -0.172 -0.166 c -0.048 -0.042 -0.096 -0.083 -0.148 -0.12 c -0.021 -0.015 -0.038 -0.034 -0.06 -0.049 c -0.044 -0.029 -0.092 -0.047 -0.137 -0.072 c -0.055 -0.03 -0.108 -0.061 -0.165 -0.086 c -0.08 -0.035 -0.161 -0.06 -0.243 -0.083 c -0.05 -0.015 -0.099 -0.033 -0.15 -0.043 c -0.103 -0.021 -0.207 -0.03 -0.312 -0.035 c -0.031 -0.001 -0.06 -0.01 -0.092 -0.01 h -53.28 c -0.002 0 -0.004 0 -0.006 0 h -0.02 c -0.021 0 -0.042 0.006 -0.063 0.007 c -0.115 0.004 -0.229 0.014 -0.343 0.038 c -0.047 0.01 -0.091 0.027 -0.138 0.04 c -0.086 0.024 -0.171 0.051 -0.255 0.087 c -0.055 0.024 -0.105 0.054 -0.158 0.082 c -0.047 0.026 -0.097 0.044 -0.143 0.075 c -0.023 0.015 -0.04 0.035 -0.062 0.051 c -0.05 0.036 -0.095 0.075 -0.142 0.115 c -0.063 0.055 -0.123 0.111 -0.178 0.172 c -0.018 0.021 -0.041 0.036 -0.059 0.057 L 0.46 23.023 c -0.013 0.015 -0.017 0.034 -0.029 0.05 c -0.118 0.151 -0.217 0.315 -0.289 0.496 c -0.01 0.026 -0.015 0.053 -0.025 0.079 c -0.056 0.162 -0.091 0.332 -0.103 0.51 c -0.002 0.031 -0.008 0.06 -0.009 0.091 C 0.005 24.267 0 24.283 0 24.3 c 0 0.177 0.03 0.345 0.073 0.508 c 0.009 0.036 0.021 0.07 0.033 0.105 c 0.061 0.188 0.142 0.366 0.252 0.525 c 0.003 0.004 0.003 0.009 0.006 0.013 l 43 61.124 c 0.012 0.017 0.028 0.029 0.041 0.045 c 0.042 0.056 0.083 0.112 0.13 0.163 c 0.025 0.027 0.053 0.049 0.079 0.074 c 0.01 0.009 0.02 0.018 0.029 0.028 c 0.024 0.023 0.047 0.047 0.073 0.068 c 0.028 0.023 0.056 0.046 0.085 0.068 c 0.039 0.029 0.08 0.054 0.121 0.081 c 0.046 0.029 0.09 0.061 0.138 0.086 c 0.02 0.011 0.041 0.018 0.061 0.028 c 0.042 0.021 0.085 0.039 0.129 0.057 c 0.069 0.028 0.14 0.051 0.212 0.071 c 0.026 0.007 0.051 0.018 0.077 0.025 c 0.008 0.002 0.015 0.006 0.024 0.008 c 0.014 0.003 0.028 0.002 0.042 0.005 c 0.128 0.026 0.259 0.043 0.393 0.043 c 0 0 0.001 0 0.001 0 c 0 0 0.001 0 0.001 0 s 0.001 0 0.001 0 c 0 0 0.001 0 0.001 0 c 0.134 0 0.264 -0.017 0.393 -0.043 c 0.014 -0.003 0.028 -0.002 0.042 -0.005 c 0.008 -0.002 0.015 -0.006 0.024 -0.008 c 0.027 -0.006 0.052 -0.018 0.078 -0.025 c 0.071 -0.02 0.141 -0.043 0.209 -0.071 c 0.044 -0.018 0.087 -0.036 0.13 -0.057 c 0.021 -0.01 0.042 -0.019 0.063 -0.029 c 0.046 -0.025 0.089 -0.055 0.133 -0.083 c 0.043 -0.027 0.086 -0.054 0.126 -0.084 c 0.028 -0.021 0.055 -0.043 0.082 -0.065 c 0.027 -0.023 0.052 -0.048 0.078 -0.073 c 0.007 -0.006 0.013 -0.012 0.02 -0.018 c 0.029 -0.028 0.06 -0.052 0.087 -0.082 c 0.046 -0.05 0.086 -0.105 0.127 -0.16 c 0.013 -0.017 0.03 -0.029 0.042 -0.047 l 43 -61.124 c 0.003 -0.004 0.003 -0.009 0.006 -0.013 C 89.752 25.279 89.833 25.101 89.894 24.914 z M 18.162 7.934 L 27.609 22.3 H 6.255 L 18.162 7.934 z M 56.184 26.3 L 45 76.267 L 33.815 26.3 H 56.184 z M 35.14 22.3 L 45 8.086 L 54.86 22.3 H 35.14 z M 48.822 6.577 h 19.122 l -9.306 14.15 L 48.822 6.577 z M 31.362 20.727 l -9.306 -14.15 h 19.122 L 31.362 20.727 z M 29.717 26.3 l 11.137 49.754 L 5.852 26.3 H 29.717 z M 60.284 26.3 h 23.864 l -35 49.753 L 60.284 26.3 z M 62.391 22.3 l 9.448 -14.365 L 83.744 22.3 H 62.391 z" style="stroke: none; stroke-width: 1; stroke-dasharray: none; stroke-linecap: butt; stroke-linejoin: miter; stroke-miterlimit: 10; fill: rgb(212,178,99); fill-rule: nonzero; opacity: 1;" transform=" matrix(1 0 0 1 0 0) " stroke-linecap="round" />
</g>
</g>
</svg>